<svg width="146" height="34" viewBox="0 0 146 34" fill="none" xmlns="http://www.w3.org/2000/svg">
  <path d="M38.1529 3.60761V3.02903C37.6559 2.93827 37.2606 2.88155 36.967 2.85886C36.6959 2.81348 36.5378 2.79079 36.4926 2.79079C35.3405 2.79079 34.2111 3.24458 33.1042 4.15215C29.6707 1.38405 26.1355 0 22.4987 0C20.3753 0 18.3875 0.408408 16.5352 1.22523C14.5925 2.06473 12.9661 3.27861 11.6559 4.86687C8.19982 5.63831 5.38749 7.28328 3.21894 9.8018C1.07298 12.3657 0 15.4401 0 19.025C0 23.1318 1.31016 26.6373 3.93049 29.5415C6.61859 32.5138 9.98435 34 14.0278 34C18.3423 34 21.9565 32.3664 24.8705 29.0991C24.7576 29.5983 24.7011 30.0407 24.7011 30.4264C24.7011 32.7181 25.7628 33.8639 27.8862 33.8639C29.7836 33.8639 31.4665 32.979 32.9348 31.2092C34.0869 29.8478 34.9565 28.0894 35.5438 25.9339C35.9956 26.4104 36.4474 27.1365 36.8992 28.1121L37.4413 27.8398C37.1251 26.7961 36.583 25.8772 35.8149 25.0831V24.4024C35.9053 24.0167 35.9505 23.4721 35.9505 22.7688C35.9505 20.7267 35.0017 18.9229 33.1042 17.3574C34.4822 16.7901 35.4874 16.0641 36.1199 15.1792C36.7524 14.2943 37.0686 13.1031 37.0686 11.6056C37.0686 9.15516 35.8714 6.80681 33.477 4.56056C34.5838 3.81181 35.6455 3.43744 36.662 3.43744C36.8879 3.43744 37.1138 3.46013 37.3397 3.5055C37.5882 3.52819 37.8592 3.56223 38.1529 3.60761ZM34.4596 10.5165C34.4596 13.5342 33.7141 15.633 32.2233 16.8128C31.6811 16.5405 31.2293 16.4044 30.8679 16.4044C30.3032 16.4044 30.0208 16.5859 30.0208 16.9489C30.0208 17.4254 30.4387 17.6637 31.2745 17.6637C31.3875 17.6637 31.5456 17.641 31.7489 17.5956C31.9522 17.5502 32.1103 17.5275 32.2233 17.5275C32.9687 18.3443 33.3414 19.3994 33.3414 20.6927C33.3414 20.9423 33.3188 21.3053 33.2737 21.7818C33.2511 22.2356 33.1946 22.7915 33.1042 23.4495C32.5169 23.2452 31.907 23.1431 31.2745 23.1431C29.7836 23.1431 28.417 23.6537 27.1746 24.6747C28.0782 21.9293 28.7107 19.354 29.0721 16.9489C29.3206 15.3834 29.5352 14.0901 29.7159 13.0691C29.9192 12.0254 30.0886 11.2426 30.2241 10.7207C30.8566 8.24758 31.7602 6.37571 32.9348 5.10511C33.9513 6.64798 34.4596 8.45178 34.4596 10.5165ZM24.159 14.4985C22.2389 16.7674 20.093 17.9019 17.7211 17.9019C15.6655 17.9019 13.9036 17.1985 12.4353 15.7918C11.0122 14.3624 10.3006 12.6039 10.3006 10.5165C10.3006 8.31565 10.854 6.61395 11.9609 5.41141C13.7454 5.20721 14.5135 5.10511 14.265 5.10511C17.0434 5.10511 19.3362 5.97865 21.1433 7.72573C22.8827 9.45012 23.8879 11.7077 24.159 14.4985ZM32.9348 24.1301C32.4379 26.1722 31.828 27.9533 31.1051 29.4735C29.9079 31.8559 28.6429 33.047 27.3102 33.047C26.6777 33.047 26.1694 32.7748 25.7854 32.2302C25.424 31.6857 25.2433 31.0844 25.2433 30.4264C25.2433 28.702 25.808 27.1478 26.9374 25.7638C28.0895 24.4024 29.5352 23.7217 31.2745 23.7217C31.523 23.7217 32.0764 23.8579 32.9348 24.1301ZM32.3927 4.56056C30.9922 5.9673 29.9418 7.29463 29.2415 8.54254C28.6316 9.67701 27.8862 11.7871 27.0052 14.8729C25.4691 20.4318 24.0799 24.3684 22.8375 26.6827C20.3753 31.1979 17.2467 33.4555 13.4518 33.4555C9.86012 33.4555 6.83318 32.026 4.37098 29.1672C1.99913 26.4444 0.813206 23.2452 0.813206 19.5696C0.813206 16.2569 1.75065 13.364 3.62554 10.8909C5.45525 8.50851 7.95134 6.76143 11.1138 5.64965C10.2102 7.16984 9.75846 8.7354 9.75846 10.3463C9.75846 12.6833 10.5152 14.6233 12.0287 16.1662C13.5647 17.709 15.4622 18.4805 17.7211 18.4805C20.093 18.4805 22.2389 17.5162 24.159 15.5876C24.0009 18.2196 23.0408 20.5225 21.2789 22.4965C19.4492 24.5839 17.2467 25.6276 14.6716 25.6276C12.7289 25.6276 11.1025 24.9469 9.79235 23.5856C8.48218 22.2015 7.8271 20.5452 7.8271 18.6166C7.8271 18.0494 7.96264 17.2326 8.2337 16.1662H7.69157C7.4205 16.9603 7.28497 17.7771 7.28497 18.6166C7.28497 20.8629 8.0304 22.712 9.52128 24.1642C11.0347 25.6163 12.8983 26.3423 15.1121 26.3423C17.8453 26.3423 20.1833 25.2646 22.126 23.1091C23.9557 21.0444 24.8705 18.5939 24.8705 15.7578V14.6346C26.0226 12.638 26.5986 10.6073 26.5986 8.54254C26.5986 7.61228 26.3727 6.56857 25.9209 5.41141L25.5143 5.64965C25.8757 6.73874 26.0565 7.74841 26.0565 8.67868C26.0565 10.2216 25.6047 11.8892 24.7011 13.6817C24.2267 10.9816 23.086 8.79213 21.2789 7.11311C19.404 5.41141 17.1112 4.56056 14.4005 4.56056H12.6047C15.2702 1.90591 18.5682 0.578579 22.4987 0.578579C26.2711 0.578579 29.5691 1.90591 32.3927 4.56056Z" fill="black"/>
  <path d="M54.4154 20.7267C54.4154 20.5679 54.3815 20.4318 54.3138 20.3183C51.8967 23.6763 50.3268 25.7978 49.6039 26.6827C48.3841 28.1348 47.4693 28.8609 46.8594 28.8609C46.2495 28.8609 45.9445 28.5432 45.9445 27.9079C45.9445 27.1138 47.1982 24.0394 49.7056 18.6847L49.5701 18.5826C47.4015 19.354 46.0575 19.7397 45.5379 19.7397C44.8828 19.7397 44.5553 19.4561 44.5553 18.8889C44.5553 18.7301 44.6795 18.367 44.928 17.7998L44.8941 17.6977C44.5779 17.7204 44.2955 17.8225 44.047 18.004C43.7986 18.1628 43.584 18.3784 43.4032 18.6507C43.2225 18.9002 43.0757 19.1839 42.9628 19.5015C42.8724 19.7965 42.8272 20.1028 42.8272 20.4204C42.8272 21.2146 43.2677 21.6116 44.1487 21.6116C44.8715 21.6116 45.9332 21.1692 47.3337 20.2843C44.9619 23.8238 43.776 26.3991 43.776 28.01C43.776 29.4167 44.5101 30.1201 45.9784 30.1201C46.9045 30.1201 47.8985 29.6096 48.9602 28.5886C49.2764 28.2709 49.7282 27.7264 50.3155 26.955C50.9254 26.1835 51.6821 25.1852 52.5857 23.96C53.4215 22.8482 53.862 22.2356 53.9072 22.1221C54.246 21.5776 54.4154 21.1124 54.4154 20.7267Z" fill="black"/>
  <path d="M58.388 13.8178C58.388 13.6363 58.1734 13.4434 57.7442 13.2392C57.7442 13.2392 57.6877 13.2052 57.5748 13.1371C57.4844 13.0691 57.3715 13.001 57.2359 12.9329C57.123 12.8422 57.0101 12.7741 56.8971 12.7287C56.7842 12.6607 56.7051 12.6266 56.6599 12.6266C56.547 12.6266 56.355 12.8649 56.0839 13.3413C55.8128 13.7951 55.6773 14.1128 55.6773 14.2943C55.6773 14.5666 55.9597 14.8161 56.5244 15.043C56.9988 15.2472 57.3941 15.3493 57.7103 15.3493C58.1621 15.3493 58.388 14.8388 58.388 13.8178ZM62.8267 20.9309C62.8267 20.8856 62.8154 20.8175 62.7929 20.7267C62.7703 20.6133 62.759 20.5339 62.759 20.4885C58.8962 26.1608 56.3098 28.997 54.9996 28.997C54.4349 28.997 54.1525 28.6793 54.1525 28.044C54.1525 27.5903 54.3107 26.8529 54.6269 25.8318L56.931 18.6847C56.9762 18.5485 56.9988 18.4805 56.9988 18.4805C56.9988 18.299 56.9197 18.2082 56.7616 18.2082H56.6599L55.4062 18.4805C55.1126 18.5032 54.8867 18.696 54.7286 19.0591L52.5939 25.7638C52.2551 26.8302 52.0856 27.5562 52.0856 27.9419C52.0856 29.3033 52.7407 29.984 54.0509 29.984C55.8354 29.984 58.1508 28.0667 60.997 24.2322C62.2168 22.5759 62.8267 21.4755 62.8267 20.9309Z" fill="black"/>
  <path d="M73.5024 21.1011L73.4008 20.4885C72.6102 21.6456 71.9325 22.6326 71.3678 23.4495C70.803 24.2663 70.3287 24.9016 69.9447 25.3554C68.0472 27.715 66.5676 28.8949 65.5059 28.8949C64.4216 28.8949 63.8795 27.9193 63.8795 25.968C63.8795 25.0377 63.9925 24.0848 64.2183 23.1091C67.9907 18.2309 69.8769 13.3867 69.8769 8.57658C69.8769 7.30597 69.6962 6.48916 69.3348 6.12613L69.0976 6.16016C68.1262 6.79546 67.0307 8.37237 65.8109 10.8909C64.4781 13.659 63.4955 16.3817 62.863 19.0591C62.0498 22.5759 61.6432 24.8789 61.6432 25.968C61.6432 27.1024 61.8691 28.0554 62.3209 28.8268C62.863 29.689 63.6762 30.1201 64.7605 30.1201C66.545 30.1201 68.8604 28.1575 71.7066 24.2322C72.9038 22.5532 73.5024 21.5095 73.5024 21.1011ZM68.0811 12.2523C68.0811 15.338 66.8387 18.5032 64.3539 21.7477C64.9186 16.688 66.0593 12.4905 67.7761 9.15515C67.9794 10.3577 68.0811 11.3901 68.0811 12.2523Z" fill="black"/>
  <path d="M84.2234 21.1011L84.1217 20.4885C83.3311 21.6456 82.6535 22.6326 82.0887 23.4495C81.524 24.2663 81.0496 24.9016 80.6656 25.3554C78.7682 27.715 77.2886 28.8949 76.2269 28.8949C75.1426 28.8949 74.6005 27.9193 74.6005 25.968C74.6005 25.0377 74.7134 24.0848 74.9393 23.1091C78.7117 18.2309 80.5979 13.3867 80.5979 8.57658C80.5979 7.30597 80.4171 6.48916 80.0557 6.12613L79.8185 6.16016C78.8472 6.79546 77.7516 8.37237 76.5318 10.8909C75.1991 13.659 74.2165 16.3817 73.584 19.0591C72.7708 22.5759 72.3642 24.8789 72.3642 25.968C72.3642 27.1024 72.59 28.0554 73.0418 28.8268C73.584 29.689 74.3972 30.1201 75.4814 30.1201C77.266 30.1201 79.5814 28.1575 82.4276 24.2322C83.6248 22.5532 84.2234 21.5095 84.2234 21.1011ZM78.802 12.2523C78.802 15.338 77.5596 18.5032 75.0748 21.7477C75.6396 16.688 76.7803 12.4905 78.4971 9.15515C78.7004 10.3577 78.802 11.3901 78.802 12.2523Z" fill="black"/>
  <path d="M88.2015 13.8178C88.2015 13.6363 87.9869 13.4434 87.5578 13.2392C87.5578 13.2392 87.5013 13.2052 87.3883 13.1371C87.298 13.0691 87.185 13.001 87.0495 12.9329C86.9366 12.8422 86.8236 12.7741 86.7107 12.7287C86.5977 12.6607 86.5187 12.6266 86.4735 12.6266C86.3605 12.6266 86.1685 12.8649 85.8975 13.3413C85.6264 13.7951 85.4909 14.1128 85.4909 14.2943C85.4909 14.5666 85.7732 14.8161 86.338 15.043C86.8123 15.2472 87.2076 15.3493 87.5239 15.3493C87.9756 15.3493 88.2015 14.8388 88.2015 13.8178ZM92.6403 20.9309C92.6403 20.8856 92.629 20.8175 92.6064 20.7267C92.5838 20.6133 92.5725 20.5339 92.5725 20.4885C88.7098 26.1608 86.1234 28.997 84.8132 28.997C84.2485 28.997 83.9661 28.6793 83.9661 28.044C83.9661 27.5903 84.1242 26.8529 84.4405 25.8318L86.7446 18.6847C86.7897 18.5485 86.8123 18.4805 86.8123 18.4805C86.8123 18.299 86.7333 18.2082 86.5751 18.2082H86.4735L85.2198 18.4805C84.9261 18.5032 84.7002 18.696 84.5421 19.0591L82.4075 25.7638C82.0686 26.8302 81.8992 27.5562 81.8992 27.9419C81.8992 29.3033 82.5543 29.984 83.8644 29.984C85.649 29.984 87.9644 28.0667 90.8106 24.2322C92.0304 22.5759 92.6403 21.4755 92.6403 20.9309Z" fill="black"/>
  <path d="M106.433 21.1351C106.433 21.2032 106.399 21.033 106.332 20.6246C102.491 26.1381 100.097 28.8949 99.1483 28.8949C98.7191 28.8949 98.5045 28.668 98.5045 28.2142C98.5045 27.8966 98.5723 27.5108 98.7078 27.0571L100.266 21.7818C100.718 20.2162 100.944 19.3086 100.944 19.0591V18.957L100.809 18.7868C99.8599 18.333 98.866 18.1061 97.8269 18.1061C95.9746 18.1061 94.303 18.7868 92.8121 20.1481C90.5984 22.1902 89.4915 24.3003 89.4915 26.4785C89.4915 27.4768 89.6948 28.2936 90.1014 28.9289C90.621 29.655 91.3325 30.018 92.2361 30.018C93.7044 30.018 95.4776 28.2142 97.5558 24.6066C96.9007 26.5125 96.5732 27.7831 96.5732 28.4184C96.5732 29.5302 97.1266 30.0861 98.2335 30.0861C99.1822 30.0861 100.21 29.4962 101.317 28.3163C101.633 27.976 102.107 27.3974 102.74 26.5806C103.395 25.7411 104.22 24.6633 105.213 23.3473C106.027 22.2583 106.433 21.5209 106.433 21.1351ZM99.1822 19.3654C98.7756 20.3864 98.3464 21.3507 97.8946 22.2583C97.4654 23.1431 97.0249 24.0053 96.5732 24.8448C95.0145 27.5903 93.7157 28.963 92.6766 28.963C91.9763 28.963 91.6262 28.4525 91.6262 27.4314C91.6262 25.9112 92.4733 23.9373 94.1674 21.5095C95.3872 19.7624 96.5619 18.8889 97.6913 18.8889C98.3012 18.8889 98.7982 19.0477 99.1822 19.3654Z" fill="black"/>
  <path d="M121.788 21.1011C121.788 21.1011 121.777 21.0671 121.754 20.999C121.754 20.9082 121.731 20.7835 121.686 20.6246C117.914 25.9339 115.531 28.5886 114.537 28.5886C114.108 28.5886 113.893 28.4071 113.893 28.044C113.893 27.681 114.367 26.1381 115.316 23.4154C115.881 21.8499 116.163 20.7267 116.163 20.046C116.163 19.5015 115.982 19.0477 115.621 18.6847C115.282 18.299 114.842 18.1061 114.3 18.1061C112.673 18.1061 110.143 20.7494 106.71 26.036L109.014 18.6847C109.059 18.5485 109.081 18.4805 109.081 18.4805C109.081 18.2763 109.002 18.1742 108.844 18.1742C108.686 18.1742 108.596 18.1855 108.573 18.2082L107.421 18.4805C107.128 18.5485 106.856 18.8435 106.608 19.3654L103.592 29.2693C103.57 29.3146 103.558 29.4508 103.558 29.6777C103.558 29.8365 103.66 29.9159 103.863 29.9159H103.999L105.253 29.7798C105.501 29.7117 105.716 29.5415 105.896 29.2693C105.919 29.2466 106.032 28.9743 106.235 28.4525C106.461 27.9306 106.766 27.3407 107.15 26.6827C107.557 26.002 108.054 25.2419 108.641 24.4024C110.922 21.1578 112.504 19.5355 113.385 19.5355C113.769 19.5355 113.961 19.7057 113.961 20.046C113.961 20.1595 113.667 21.1011 113.08 22.8709C112.131 25.707 111.657 27.3974 111.657 27.9419C111.657 28.5319 111.837 29.031 112.199 29.4394C112.56 29.8252 113.023 30.018 113.588 30.018C114.83 30.018 116.739 28.3504 119.314 25.015C120.963 22.8822 121.788 21.5776 121.788 21.1011Z" fill="black"/>
  <path d="M134.024 20.999C134.024 20.8629 134.001 20.7267 133.956 20.5906C130.387 26.3764 127.168 29.2693 124.299 29.2693C122.515 29.2693 121.623 28.2709 121.623 26.2743C121.623 25.3213 121.837 24.3003 122.266 23.2112C122.628 22.2129 123.125 21.2826 123.757 20.4204C124.593 19.3313 125.44 18.7868 126.299 18.7868C127.021 18.7868 127.383 19.2065 127.383 20.046C127.383 20.8402 126.965 21.4188 126.129 21.7818C126.355 22.1221 126.694 22.2923 127.146 22.2923C127.733 22.2923 128.241 22.0994 128.67 21.7137C129.1 21.328 129.314 20.8402 129.314 20.2502C129.314 19.5242 129.021 18.957 128.433 18.5485C127.936 18.1855 127.304 18.004 126.536 18.004C124.774 18.004 123.057 18.9456 121.385 20.8288C119.94 22.4852 119.217 24.1982 119.217 25.968C119.217 27.2159 119.601 28.2369 120.369 29.031C121.137 29.8025 122.142 30.1882 123.385 30.1882C126.637 30.1882 129.811 27.9419 132.906 23.4495C133.651 22.3604 134.024 21.5435 134.024 20.999Z" fill="black"/>
  <path d="M146 20.9309C146 20.8629 145.966 20.7267 145.898 20.5225C145.243 21.6116 144.577 22.6099 143.899 23.5175C143.222 24.4251 142.533 25.2419 141.832 25.968C139.777 28.1688 137.891 29.2693 136.174 29.2693C134.502 29.2693 133.666 28.305 133.666 26.3764C135.451 25.8318 136.998 25.1171 138.308 24.2322C140.183 23.007 141.121 21.7024 141.121 20.3183C141.121 19.5923 140.838 19.025 140.274 18.6166C139.709 18.2082 139.054 18.004 138.308 18.004C136.569 18.004 134.954 18.9116 133.463 20.7267C132.04 22.4738 131.328 24.2209 131.328 25.968C131.328 27.2159 131.679 28.2369 132.379 29.031C133.079 29.8025 134.05 30.1882 135.293 30.1882C138.455 30.1882 141.539 28.1008 144.543 23.9259C145.514 22.6099 146 21.6116 146 20.9309ZM139.122 20.1481C139.122 21.4641 138.523 22.6553 137.326 23.7217C136.332 24.6293 135.112 25.2533 133.666 25.5936C133.87 24.1869 134.299 22.8141 134.954 21.4755C135.835 19.7057 136.851 18.8208 138.003 18.8208C138.749 18.8208 139.122 19.2633 139.122 20.1481Z" fill="black"/>
</svg>
